<?xml version="1.0" encoding="utf-8"?>
<!-- Generator: Adobe Illustrator 16.0.0, SVG Export Plug-In . SVG Version: 6.00 Build 0)  -->
<!DOCTYPE svg PUBLIC "-//W3C//DTD SVG 1.1//EN" "http://www.w3.org/Graphics/SVG/1.1/DTD/svg11.dtd">
<svg version="1.1" id="Layer_1" xmlns="http://www.w3.org/2000/svg" xmlns:xlink="http://www.w3.org/1999/xlink" x="0px" y="0px"
	 width="485.063px" height="100.518px" viewBox="0 0 485.063 100.518" enable-background="new 0 0 485.063 100.518"
	 xml:space="preserve">
<path d="M47.486,29.706v42.5c0,1.654-0.529,2.252-2.249,2.252H41.86c-1.722,0-2.251-0.598-2.251-2.252V52.014
	c0-3.773,0.463-8.076,1.587-13.174h-0.461c-1.655,4.965-3.311,8.275-5.428,12.115l-6.489,11.453
	c-0.727,1.191-1.258,1.589-2.581,1.589h-2.12c-1.389,0-1.854-0.267-2.58-1.589l-6.622-11.52c-2.25-3.839-3.508-6.753-5.097-12.049
	H9.355c1.059,5.164,1.391,9.07,1.391,13.24v20.125c0,1.654-0.53,2.252-2.251,2.252H5.316C3.597,74.458,3,73.86,3,72.206v-42.5
	c0-1.655,0.597-2.251,2.316-2.251H8.23c1.854,0,2.448,0.332,3.177,1.721l13.77,24.627l13.771-24.561
	c0.795-1.456,1.258-1.787,3.045-1.787h3.245C46.957,27.455,47.486,28.05,47.486,29.706z"/>
<path d="M120.477,29.706v42.5c0,1.654-0.593,2.252-2.315,2.252h-3.772c-1.657,0-2.254-0.598-2.254-2.252V54.531H92.542v17.675
	c0,1.654-0.599,2.252-2.25,2.252h-3.775c-1.72,0-2.316-0.598-2.316-2.252v-42.5c0-1.655,0.596-2.251,2.316-2.251h3.775
	c1.652,0,2.25,0.596,2.25,2.251v17.079h19.593V29.706c0-1.655,0.597-2.251,2.254-2.251h3.772
	C119.884,27.455,120.477,28.05,120.477,29.706z"/>
<path d="M455.797,29.639l-10.924,42.963c-0.396,1.59-1.258,1.855-2.781,1.855h-3.641c-1.589,0-2.448-0.332-2.781-1.789
	l-6.949-26.281c-0.531-2.117-0.992-4.965-1.059-7.479h-0.465c-0.067,2.515-0.527,5.162-1.125,7.413l-7.016,26.281
	c-0.4,1.59-1.26,1.855-2.781,1.855h-3.575c-1.59,0-2.45-0.266-2.847-1.789l-10.857-43.03c-0.396-1.522-0.199-2.184,1.457-2.184
	h4.633c1.855,0,2.648,0.332,2.979,1.986l5.429,24.692c0.466,2.316,0.927,7.68,1.06,8.871h0.4c0.064-1.391,0.658-6.289,1.322-8.871
	l6.686-24.495c0.465-1.655,1.326-1.985,2.979-1.985h3.573c1.724,0,2.583,0.331,2.981,1.985l6.551,24.495
	c0.73,2.846,1.328,7.613,1.395,8.871h0.395c0.066-1.06,0.664-6.223,1.191-8.806l5.297-24.758c0.332-1.655,1.123-1.986,2.979-1.986
	h4.039C455.928,27.455,456.196,28.117,455.797,29.639z"/>
<g>
	<path d="M166.836,62.127v6.945c0,0.271-0.086,0.368-0.368,0.368h-0.551c-0.282,0-0.368-0.097-0.368-0.368v-3.299
		c0-0.617,0.076-1.32,0.26-2.153h-0.076c-0.271,0.812-0.541,1.353-0.887,1.979l-1.06,1.872c-0.119,0.194-0.206,0.259-0.422,0.259
		h-0.346c-0.228,0-0.303-0.043-0.422-0.259l-1.082-1.883c-0.368-0.628-0.573-1.104-0.833-1.969h-0.076
		c0.173,0.844,0.227,1.481,0.227,2.163v3.289c0,0.271-0.086,0.368-0.368,0.368h-0.52c-0.281,0-0.378-0.097-0.378-0.368v-6.945
		c0-0.271,0.097-0.368,0.378-0.368h0.476c0.303,0,0.4,0.054,0.52,0.281l2.25,4.024l2.25-4.013c0.129-0.238,0.206-0.292,0.498-0.292
		h0.53C166.75,61.76,166.836,61.857,166.836,62.127z"/>
	<path d="M179.344,62.127v0.53c0,0.271-0.098,0.368-0.379,0.368h-3.311v1.893h2.802c0.271,0,0.368,0.098,0.368,0.368v0.53
		c0,0.271-0.097,0.367-0.368,0.367h-2.802v1.991h3.43c0.281,0,0.368,0.097,0.368,0.368v0.529c0,0.271-0.086,0.368-0.368,0.368
		h-4.414c-0.281,0-0.378-0.097-0.378-0.368v-6.945c0-0.271,0.097-0.368,0.378-0.368h4.295
		C179.246,61.76,179.344,61.857,179.344,62.127z"/>
	<path d="M192.446,64.616v1.969c0,1.764-1.125,2.856-3.138,2.856h-2.423c-0.281,0-0.378-0.097-0.378-0.368v-6.945
		c0-0.271,0.097-0.368,0.378-0.368h2.423C191.32,61.76,192.446,62.853,192.446,64.616z M189.319,63.025h-1.45v5.15h1.45
		c1.136,0,1.774-0.552,1.774-1.579v-1.991C191.093,63.577,190.455,63.025,189.319,63.025z"/>
	<path d="M200.041,61.76h0.617c0.271,0,0.368,0.097,0.368,0.368v6.945c0,0.271-0.097,0.368-0.368,0.368h-0.617
		c-0.281,0-0.378-0.097-0.378-0.368v-6.945C199.662,61.857,199.759,61.76,200.041,61.76z"/>
	<path d="M214.473,69.441h-0.562c-0.454,0-0.584-0.065-0.67-0.325l-0.498-1.395h-2.986l-0.508,1.395
		c-0.086,0.26-0.216,0.325-0.671,0.325h-0.498c-0.271,0-0.335-0.119-0.249-0.356l2.705-7.033c0.097-0.249,0.206-0.303,0.454-0.303
		h0.573c0.249,0,0.368,0.054,0.455,0.292l2.705,7.043C214.808,69.322,214.743,69.441,214.473,69.441z M211.281,63.004h-0.076
		c0,0.011-0.011,0.649-0.238,1.309l-0.833,2.293h2.229l-0.822-2.282C211.314,63.653,211.292,63.015,211.281,63.004z"/>
	<path d="M235.495,62.127v6.945c0,0.271-0.097,0.368-0.378,0.368H234.5c-0.271,0-0.368-0.097-0.368-0.368v-2.889h-3.203v2.889
		c0,0.271-0.097,0.368-0.368,0.368h-0.617c-0.281,0-0.378-0.097-0.378-0.368v-6.945c0-0.271,0.097-0.368,0.378-0.368h0.617
		c0.271,0,0.368,0.097,0.368,0.368v2.791h3.203v-2.791c0-0.271,0.097-0.368,0.368-0.368h0.617
		C235.397,61.76,235.495,61.857,235.495,62.127z"/>
	<path d="M248.942,69.441h-0.562c-0.454,0-0.584-0.065-0.67-0.325l-0.498-1.395h-2.986l-0.508,1.395
		c-0.086,0.26-0.216,0.325-0.671,0.325h-0.498c-0.271,0-0.335-0.119-0.249-0.356l2.705-7.033c0.097-0.249,0.206-0.303,0.454-0.303
		h0.573c0.249,0,0.368,0.054,0.455,0.292l2.705,7.043C249.278,69.322,249.213,69.441,248.942,69.441z M245.751,63.004h-0.076
		c0,0.011-0.011,0.649-0.238,1.309l-0.833,2.293h2.229l-0.822-2.282C245.784,63.653,245.762,63.015,245.751,63.004z"/>
	<path d="M258.691,61.598c1.591,0,2.532,0.638,2.942,1.807c0.098,0.26,0.033,0.378-0.227,0.476l-0.596,0.206
		c-0.26,0.075-0.367,0.043-0.465-0.229c-0.238-0.659-0.757-0.995-1.655-0.995c-1.114,0-1.731,0.541-1.731,1.536v2.392
		c0,0.995,0.617,1.547,1.731,1.547c0.909,0,1.417-0.347,1.655-1.006c0.108-0.271,0.217-0.325,0.477-0.228l0.584,0.205
		c0.26,0.098,0.324,0.217,0.238,0.477c-0.412,1.168-1.354,1.817-2.954,1.817c-1.99,0-3.094-1.081-3.094-2.823v-2.369
		C255.597,62.679,256.701,61.598,258.691,61.598z"/>
	<path d="M274.346,69.441h-0.627c-0.465,0-0.605-0.054-0.736-0.325l-1.092-2.195c-0.293-0.584-0.541-0.758-1.288-0.758h-0.552v2.91
		c0,0.271-0.098,0.368-0.367,0.368h-0.617c-0.281,0-0.379-0.097-0.379-0.368v-6.945c0-0.271,0.098-0.368,0.379-0.368h0.617
		c0.27,0,0.367,0.097,0.367,0.368v2.803h0.434h0.141l2.174-2.868c0.195-0.259,0.303-0.303,0.736-0.303h0.691
		c0.249,0,0.314,0.173,0.174,0.357l-2.413,3.083c0.509,0.228,0.854,0.628,1.169,1.234l1.373,2.639
		C274.639,69.279,274.617,69.441,274.346,69.441z"/>
	<path d="M298.256,62.117l-1.784,7.021c-0.065,0.259-0.206,0.303-0.454,0.303h-0.596c-0.26,0-0.4-0.054-0.454-0.292l-1.136-4.295
		c-0.087-0.346-0.162-0.812-0.174-1.223h-0.075c-0.011,0.411-0.087,0.844-0.185,1.212l-1.146,4.295
		c-0.064,0.259-0.205,0.303-0.454,0.303h-0.584c-0.26,0-0.4-0.044-0.466-0.292l-1.773-7.032c-0.064-0.249-0.033-0.357,0.238-0.357
		h0.757c0.303,0,0.433,0.054,0.487,0.325l0.887,4.035c0.076,0.379,0.151,1.255,0.173,1.449h0.065
		c0.01-0.227,0.107-1.027,0.216-1.449l1.093-4.003c0.076-0.271,0.217-0.324,0.486-0.324h0.584c0.282,0,0.423,0.054,0.488,0.324
		l1.07,4.003c0.119,0.465,0.217,1.244,0.227,1.449h0.065c0.011-0.173,0.108-1.017,0.194-1.438l0.865-4.046
		c0.055-0.271,0.185-0.325,0.488-0.325h0.659C298.279,61.76,298.322,61.868,298.256,62.117z"/>
	<path d="M310.234,62.127v0.53c0,0.271-0.098,0.368-0.379,0.368h-3.311v1.893h2.802c0.271,0,0.368,0.098,0.368,0.368v0.53
		c0,0.271-0.097,0.367-0.368,0.367h-2.802v1.991h3.43c0.281,0,0.368,0.097,0.368,0.368v0.529c0,0.271-0.087,0.368-0.368,0.368
		h-4.414c-0.281,0-0.378-0.097-0.378-0.368v-6.945c0-0.271,0.097-0.368,0.378-0.368h4.295
		C310.136,61.76,310.234,61.857,310.234,62.127z"/>
	<path d="M322.449,62.127v0.53c0,0.271-0.098,0.368-0.379,0.368h-3.311v1.893h2.802c0.271,0,0.368,0.098,0.368,0.368v0.53
		c0,0.271-0.097,0.367-0.368,0.367h-2.802v1.991h3.43c0.281,0,0.368,0.097,0.368,0.368v0.529c0,0.271-0.087,0.368-0.368,0.368
		h-4.414c-0.281,0-0.378-0.097-0.378-0.368v-6.945c0-0.271,0.097-0.368,0.378-0.368h4.295
		C322.351,61.76,322.449,61.857,322.449,62.127z"/>
	<path d="M335.27,69.441h-0.629c-0.465,0-0.605-0.054-0.734-0.325l-1.094-2.195c-0.291-0.584-0.541-0.758-1.287-0.758h-0.552v2.91
		c0,0.271-0.097,0.368-0.368,0.368h-0.616c-0.281,0-0.378-0.097-0.378-0.368v-6.945c0-0.271,0.097-0.368,0.378-0.368h0.616
		c0.271,0,0.368,0.097,0.368,0.368v2.803h0.433h0.141l2.175-2.868c0.194-0.259,0.304-0.303,0.735-0.303h0.693
		c0.248,0,0.312,0.173,0.172,0.357l-2.412,3.083c0.509,0.228,0.855,0.628,1.168,1.234l1.375,2.639
		C335.561,69.279,335.54,69.441,335.27,69.441z"/>
	<path d="M347.398,62.127v0.53c0,0.271-0.098,0.368-0.379,0.368h-3.311v1.893h2.802c0.271,0,0.368,0.098,0.368,0.368v0.53
		c0,0.271-0.097,0.367-0.368,0.367h-2.802v1.991h3.43c0.281,0,0.368,0.097,0.368,0.368v0.529c0,0.271-0.087,0.368-0.368,0.368
		h-4.414c-0.281,0-0.378-0.097-0.378-0.368v-6.945c0-0.271,0.097-0.368,0.378-0.368h4.295
		C347.3,61.76,347.398,61.857,347.398,62.127z"/>
	<path d="M360.586,62.127v6.945c0,0.271-0.087,0.368-0.369,0.368h-0.615c-0.185,0-0.271-0.044-0.357-0.185l-2.65-3.916
		c-0.509-0.757-0.844-1.752-0.888-1.817h-0.065c0,0.086,0.238,1.125,0.238,2.153v3.396c0,0.271-0.098,0.368-0.367,0.368h-0.574
		c-0.281,0-0.378-0.097-0.378-0.368v-6.945c0-0.271,0.097-0.368,0.378-0.368h0.617c0.195,0,0.281,0.065,0.357,0.173l2.629,3.895
		c0.551,0.822,0.854,1.753,0.908,1.839h0.064c0-0.107-0.237-1.092-0.237-2.186v-3.354c0-0.271,0.097-0.368,0.368-0.368h0.572
		C360.5,61.76,360.586,61.857,360.586,62.127z"/>
	<path d="M373.981,64.616v1.969c0,1.764-1.126,2.856-3.139,2.856h-2.423c-0.281,0-0.378-0.097-0.378-0.368v-6.945
		c0-0.271,0.097-0.368,0.378-0.368h2.423C372.855,61.76,373.981,62.853,373.981,64.616z M370.854,63.025h-1.45v5.15h1.45
		c1.136,0,1.773-0.552,1.773-1.579v-1.991C372.627,63.577,371.99,63.025,370.854,63.025z"/>
</g>
<g>
	<g>
		<linearGradient id="SVGID_1_" gradientUnits="userSpaceOnUse" x1="465.4204" y1="32.7974" x2="470.1118" y2="32.7974">
			<stop  offset="0" style="stop-color:#0801FB"/>
			<stop  offset="0.6026" style="stop-color:#0801FB"/>
		</linearGradient>
		<path fill="url(#SVGID_1_)" d="M470.112,28.458v8.679c0,0.338-0.107,0.459-0.459,0.459h-0.771c-0.353,0-0.46-0.122-0.46-0.459
			v-7.084l-1.893,1.055c-0.352,0.203-0.527,0.122-0.689-0.175l-0.338-0.609c-0.162-0.297-0.081-0.447,0.217-0.622l2.636-1.514
			c0.243-0.148,0.364-0.189,0.649-0.189h0.648C470.004,27.998,470.112,28.12,470.112,28.458z"/>
		<linearGradient id="SVGID_2_" gradientUnits="userSpaceOnUse" x1="473.1978" y1="32.7974" x2="480.4849" y2="32.7974">
			<stop  offset="0" style="stop-color:#0801FB"/>
			<stop  offset="0.6026" style="stop-color:#0801FB"/>
		</linearGradient>
		<path fill="url(#SVGID_2_)" d="M476.983,31.621c2.379,0,3.502,1.054,3.502,3.083c0,1.906-1.366,3.096-3.637,3.096
			c-2.393,0-3.65-1.353-3.65-3.529v-2.947c0-2.203,1.271-3.528,3.65-3.528c1.852,0,2.973,0.771,3.488,2.137
			c0.135,0.323,0.039,0.458-0.285,0.594l-0.717,0.256c-0.324,0.135-0.445,0.055-0.58-0.283c-0.312-0.73-0.906-1.123-1.906-1.123
			c-1.271,0-1.947,0.662-1.947,1.933v0.568C475.252,31.783,475.942,31.621,476.983,31.621z M476.848,36.218
			c1.257,0,1.947-0.527,1.947-1.514c0-0.987-0.541-1.501-1.934-1.501c-1.123,0-1.771,0.216-1.961,0.312v0.77
			C474.901,35.542,475.563,36.218,476.848,36.218z"/>
	</g>
</g>
<linearGradient id="SVGID_3_" gradientUnits="userSpaceOnUse" x1="158.2231" y1="48.3618" x2="376.4102" y2="48.3618">
	<stop  offset="0" style="stop-color:#0801FB"/>
	<stop  offset="0.6026" style="stop-color:#0801FB"/>
</linearGradient>
<rect x="158.223" y="44.754" fill="url(#SVGID_3_)" width="218.188" height="7.215"/>
<g>
	<linearGradient id="SVGID_4_" gradientUnits="userSpaceOnUse" x1="54.9692" y1="74.7153" x2="62.7896" y2="74.7153">
		<stop  offset="0" style="stop-color:#0801FB"/>
		<stop  offset="0.6026" style="stop-color:#0801FB"/>
	</linearGradient>
	<path fill="url(#SVGID_4_)" d="M62.79,69.696v0.547c0,0.312-0.031,0.438-0.156,0.75l-3.957,8.807
		c-0.172,0.406-0.312,0.469-0.985,0.469h-0.86c-0.391,0-0.422-0.203-0.266-0.531l3.973-8.744h-5.036
		c-0.392,0-0.532-0.141-0.532-0.531v-0.766c0-0.392,0.141-0.532,0.532-0.532h6.757C62.665,69.164,62.79,69.304,62.79,69.696z"/>
</g>
<g>
	<g>
		<linearGradient id="SVGID_5_" gradientUnits="userSpaceOnUse" x1="128.27" y1="74.4331" x2="133.6992" y2="74.4331">
			<stop  offset="0" style="stop-color:#0801FB"/>
			<stop  offset="0.6026" style="stop-color:#0801FB"/>
		</linearGradient>
		<path fill="url(#SVGID_5_)" d="M133.699,69.413v10.041c0,0.391-0.125,0.531-0.532,0.531h-0.892c-0.406,0-0.531-0.141-0.531-0.531
			v-8.195l-2.189,1.22c-0.407,0.234-0.61,0.141-0.798-0.203l-0.392-0.704c-0.188-0.344-0.094-0.516,0.251-0.719l3.05-1.752
			c0.281-0.172,0.422-0.219,0.75-0.219h0.751C133.574,68.881,133.699,69.022,133.699,69.413z"/>
		<linearGradient id="SVGID_6_" gradientUnits="userSpaceOnUse" x1="136.5" y1="74.4331" x2="144.7734" y2="74.4331">
			<stop  offset="0" style="stop-color:#0801FB"/>
			<stop  offset="0.6026" style="stop-color:#0801FB"/>
		</linearGradient>
		<path fill="url(#SVGID_6_)" d="M140.645,68.646c2.628,0,4.129,1.471,4.129,3.77v4.02c0,2.314-1.501,3.785-4.129,3.785
			s-4.145-1.471-4.145-3.785v-4.02C136.5,70.117,138.017,68.646,140.645,68.646z M140.645,70.476c-1.376,0-2.174,0.704-2.174,1.939
			v4.02c0,1.235,0.798,1.955,2.174,1.955s2.174-0.72,2.174-1.955v-4.02C142.818,71.18,142.021,70.476,140.645,70.476z"/>
	</g>
</g>
</svg>
