<?xml version="1.0" encoding="UTF-8"?>
<svg width="730px" height="1113px" viewBox="0 0 730 1113" version="1.1" xmlns="http://www.w3.org/2000/svg" xmlns:xlink="http://www.w3.org/1999/xlink">
    <!-- Generator: Sketch 48.2 (47327) - http://www.bohemiancoding.com/sketch -->
    <title>forma</title>
    <desc>Created with Sketch.</desc>
    <defs></defs>
    <g id="servise-3-Лола" stroke="none" stroke-width="1" fill="none" fill-rule="evenodd" transform="translate(-294.000000, -325.000000)">
        <g id="forma" transform="translate(302.000000, 333.000000)" stroke="#FB5B14" stroke-width="15">
            <path d="M510.19564,2.27373675e-13 C236.862306,-6.3340405e-14 251.19564,-7.52798766e-14 553.19564,1.9155526e-13 C553.19564,1.9155526e-13 553.19564,1.9155526e-13 553.19564,1.9155526e-13 L553.19564,1.98951966e-13 C631.341826,1.84596744e-13 694.691827,63.3500011 694.691827,141.496188 C694.691827,217.2249 635.067488,279.528827 559.411891,282.855763 C557.224587,282.951907 555.152503,283 553.19564,283 C423.19564,283 570.238608,283 193.19564,283 C-75.8824854,283 -49.7692042,670 184.19564,670 C415.305374,670 366.548433,670 581.19564,670 C586.53138,670 592.062095,670.058858 597.787784,670.176573 L597.787783,670.176615 C660.646764,671.468945 710.556395,723.473857 709.264065,786.332838 C708.099329,842.985691 665.445747,890.156921 609.19564,897 L143.19564,903 L133.219433,906.278697 C81.3016199,923.341574 53.0461115,979.261471 70.1089881,1031.17928 C81.0701314,1064.53114 108.882218,1089.57828 143.19564,1097 L891.19564,1097" id="Path-3"></path>
        </g>
    </g>
</svg>