<svg xmlns="http://www.w3.org/2000/svg" width="50" height="50" viewBox="0 0 50 50">
    <g fill="none" fill-rule="evenodd">
        <circle cx="25" cy="25" r="25" fill="#FFF"/>
        <g fill="#4670EA" fill-rule="nonzero">
            <path d="M38.21 23h-2.42c-.437 0-.79.447-.79 1 0 .553.353 1 .79 1h2.42c.437 0 .79-.447.79-1 0-.553-.353-1-.79-1zM36.78 28.72l-1.5-1.5a.75.75 0 1 0-1.06 1.06l1.5 1.5a.75.75 0 1 0 1.06-1.06zM36.78 18.22a.75.75 0 0 0-1.06 0l-1.5 1.5a.75.75 0 1 0 1.06 1.06l1.5-1.5a.75.75 0 0 0 0-1.06zM15.856 18c-1.079 0-1.99.699-2.333 1.667h-.153C11.542 19.667 10 21.162 10 23s1.542 3.333 3.37 3.333h.153A2.483 2.483 0 0 0 15.856 28H20V18h-4.144zM30.5 13c-.828 0-1.5.783-1.5 1.75v17.5c0 .966.672 1.75 1.5 1.75s1.5-.784 1.5-1.75v-17.5c0-.967-.672-1.75-1.5-1.75zM15.833 30.087c-.285 0-.564-.03-.833-.087v4.408C15 35.838 16.121 37 17.5 37s2.5-1.163 2.5-2.592v-4.32h-4.167zM26.268 15.747c-1.163 1.185-2.66 1.882-4.268 2.071v10.364c1.609.189 3.105.886 4.268 2.071L27 31V15l-.732.747z"/>
        </g>
    </g>
</svg>
