<svg xmlns="http://www.w3.org/2000/svg" width="110" height="110" viewBox="0 0 110 110">
    <defs>
        <radialGradient id="a" cy="52.061%" r="36.576%" fx="50%" fy="52.061%" gradientTransform="matrix(0 1 -.98923 0 1.015 .02)">
            <stop offset="0%" stop-color="#275ABD"/>
            <stop offset="100%" stop-color="#FFF" stop-opacity=".022"/>
        </radialGradient>
    </defs>
    <g fill="none" fill-rule="evenodd">
        <g>
            <circle cx="55" cy="55" r="55" fill="url(#a)" opacity=".5"/>
            <circle cx="55" cy="58" r="25" fill="#FFF"/>
        </g>
        <path fill="#709DF4" fill-rule="nonzero" d="M65 61H45v-6a6 6 0 0 1 6-6h8a6 6 0 0 1 6 6v6zm0 2a6 6 0 0 1-6 6h-8a6 6 0 0 1-6-6h20zm-14 1a1 1 0 0 0 0 2h8a1 1 0 0 0 0-2h-8zm4-4a4 4 0 1 0 0-8 4 4 0 0 0 0 8zm6 0a1 1 0 1 0 0-2 1 1 0 0 0 0 2zm-6-2a2 2 0 1 1 0-4 2 2 0 0 1 0 4z"/>
    </g>
</svg>
