<svg xmlns="http://www.w3.org/2000/svg" width="54" height="40" viewBox="0 0 54 40">
    <path fill="#FB5B14" fill-rule="evenodd" d="M45.208 30.347c-1.658-1.976-1.415-4.918.541-6.56l3.497-2.934c1.587-1.332 1.785-3.72.44-5.323-1.346-1.604-3.732-1.824-5.32-.492L19.287 36.082c-1.956 1.641-4.896 1.37-6.554-.606-1.657-1.975-1.414-4.918.542-6.559l25.08-21.044c1.587-1.332 1.784-3.72.438-5.324-1.345-1.603-3.73-1.823-5.318-.491L8.394 23.102c-1.956 1.64-4.896 1.369-6.554-.607-1.657-1.975-1.414-4.917.543-6.56l1.467-1.218c1.588-1.332 1.785-3.72.44-5.323L.517 4.898l.668-.56 3.772 4.495c1.658 1.976 1.415 4.918-.542 6.561l-1.467 1.217c-1.588 1.332-1.785 3.72-.44 5.324 1.346 1.603 3.732 1.824 5.32.492l25.08-21.044c1.955-1.642 4.895-1.37 6.552.606 1.658 1.975 1.415 4.917-.54 6.559L13.84 29.592c-1.588 1.332-1.785 3.72-.44 5.323 1.346 1.604 3.732 1.825 5.32.492L43.8 14.363c1.955-1.641 4.895-1.369 6.552.606 1.658 1.976 1.415 4.918-.54 6.56l-3.498 2.933c-1.587 1.333-1.784 3.72-.439 5.324l7.572 9.023-.669.56-7.57-9.022"/>
</svg>
