<svg xmlns="http://www.w3.org/2000/svg" width="27" height="39" viewBox="0 0 27 39">
    <path fill="#FB5B14" fill-rule="evenodd" d="M7.856 32.38c1.105-1.317 3.065-1.498 4.368-.404l2.332 1.956c1.058.888 2.65.74 3.546-.328.897-1.069.765-2.66-.293-3.549l-16.72-14.03C-.215 14.931-.377 12.97.73 11.653c1.104-1.317 3.064-1.498 4.368-.404l16.72 14.03c1.058.887 2.65.74 3.546-.329.897-1.068.765-2.66-.293-3.549L8.35 7.371C7.048 6.278 6.886 4.317 7.99 3c1.105-1.317 3.065-1.498 4.37-.403l.97.822c1.057.888 2.648.741 3.545-.328L19.39.093l.445.374-2.515 2.997c-1.105 1.317-3.065 1.498-4.37.403l-.969-.822c-1.058-.888-2.649-.741-3.546.328-.897 1.069-.765 2.66.293 3.549l16.72 14.03c1.304 1.094 1.465 3.055.36 4.372-1.105 1.317-3.064 1.498-4.368.404L4.72 11.698c-1.059-.888-2.65-.74-3.546.328-.897 1.07-.766 2.661.293 3.55l16.72 14.029c1.303 1.094 1.465 3.056.36 4.373-1.105 1.317-3.065 1.498-4.369.404l-2.331-1.957c-1.058-.888-2.649-.74-3.546.329l-5.047 6.015-.446-.374 5.048-6.015"/>
</svg>
