<svg xmlns="http://www.w3.org/2000/svg" width="36" height="27" viewBox="0 0 36 27">
    <path fill="#FB5B14" fill-rule="evenodd" d="M5.167 11.142l-2.331 1.956c-1.058.888-1.19 2.48-.293 3.549s2.488 1.216 3.546.328l16.72-14.03c1.304-1.094 3.264-.913 4.369.404 1.105 1.317.943 3.279-.361 4.373l-16.72 14.03c-1.058.887-1.19 2.48-.293 3.549.897 1.068 2.488 1.215 3.546.327l16.72-14.03c1.304-1.093 3.264-.912 4.37.405 1.104 1.317.942 3.279-.363 4.374l-.978.811c-1.058.888-1.19 2.48-.293 3.55l2.515 2.997-.445.373-2.515-2.997c-1.105-1.317-.943-3.279.362-4.374l.978-.811c1.058-.888 1.19-2.48.293-3.55-.897-1.068-2.488-1.215-3.546-.327l-16.72 14.03c-1.304 1.093-3.264.912-4.369-.405-1.105-1.317-.943-3.278.36-4.372l16.72-14.03c1.059-.888 1.19-2.48.293-3.549-.896-1.069-2.487-1.216-3.546-.328l-16.72 14.03c-1.303 1.094-3.263.912-4.368-.404-1.105-1.317-.943-3.279.36-4.373l2.332-1.956c1.058-.888 1.19-2.48.292-3.55L.035 1.128.48.753 5.528 6.77c1.105 1.317.943 3.278-.36 4.373z"/>
</svg>
