<svg xmlns="http://www.w3.org/2000/svg" width="24" height="24" viewBox="0 0 24 24">
    <g fill="none" fill-rule="nonzero">
        <circle cx="12" cy="12" r="12" fill="#FFF"/>
        <path fill="#E8E5FC" d="M17.829 5.321a.374.374 0 0 0-.384-.033L4.855 11.45a.652.652 0 0 0-.355.601.65.65 0 0 0 .37.578l11.606 5.314c.387.186.843-.106.868-.55L18 5.684a.418.418 0 0 0-.17-.364z" opacity=".823"/>
        <path fill="#2A283A" d="M8.25 14.05l.805 5.45L18 5.25z"/>
        <path fill="#393749" d="M17.66 5.288L4.861 11.49a.66.66 0 0 0-.361.598.659.659 0 0 0 .375.59l3.47 1.572L18 5.291a.383.383 0 0 0-.34-.003z"/>
        <path fill="#000" d="M10.07 14.874L9 19.5l9-14.25z"/>
        <path fill="#5A5774" d="M17.821 5.28a.4.4 0 0 0-.052-.03L9.75 15.015l6.658 2.928a.649.649 0 0 0 .907-.553l.684-11.745a.413.413 0 0 0-.178-.365z"/>
    </g>
</svg>
