<svg xmlns="http://www.w3.org/2000/svg" xmlns:xlink="http://www.w3.org/1999/xlink" width="300" height="218" viewBox="0 0 300 218">
    <defs>
        <path id="b" d="M54-44h192c5.523 0 10 4.477 10 10v280c0 5.523-4.477 10-10 10H54c-5.523 0-10-4.477-10-10V-34c0-5.523 4.477-10 10-10z"/>
        <filter id="a" width="147.6%" height="133.7%" x="-23.8%" y="-18.5%" filterUnits="objectBoundingBox">
            <feOffset dy="-5" in="SourceAlpha" result="shadowOffsetOuter1"/>
            <feGaussianBlur in="shadowOffsetOuter1" result="shadowBlurOuter1" stdDeviation="16"/>
            <feComposite in="shadowBlurOuter1" in2="SourceAlpha" operator="out" result="shadowBlurOuter1"/>
            <feColorMatrix in="shadowBlurOuter1" values="0 0 0 0 0.698039216 0 0 0 0 0.658823529 0 0 0 0 0.941176471 0 0 0 0.527768342 0"/>
        </filter>
        <circle id="d" cx="60" cy="50" r="25"/>
        <filter id="c" width="160%" height="160%" x="-30%" y="-30%" filterUnits="objectBoundingBox">
            <feOffset in="SourceAlpha" result="shadowOffsetOuter1"/>
            <feGaussianBlur in="shadowOffsetOuter1" result="shadowBlurOuter1" stdDeviation="5"/>
            <feColorMatrix in="shadowBlurOuter1" values="0 0 0 0 0.619607843 0 0 0 0 0.458823529 0 0 0 0 0.988235294 0 0 0 0.214645607 0"/>
        </filter>
    </defs>
    <g fill="none" fill-rule="evenodd">
        <g opacity=".799" transform="rotate(90 148.5 107.5)">
            <use fill="#000" filter="url(#a)" xlink:href="#b"/>
            <use fill="#FFF" xlink:href="#b"/>
            <path stroke="#B2A8F0" stroke-opacity=".068" d="M54-43.5a9.5 9.5 0 0 0-9.5 9.5v280a9.5 9.5 0 0 0 9.5 9.5h192a9.5 9.5 0 0 0 9.5-9.5V-34a9.5 9.5 0 0 0-9.5-9.5H54z"/>
        </g>
        <g transform="translate(0 3)">
            <use fill="#000" filter="url(#c)" xlink:href="#d"/>
            <use fill="#FFF" xlink:href="#d"/>
        </g>
        <text font-family="Roboto-Regular, Roboto" font-size="20" transform="translate(30 41)">
            <tspan x="0" y="69" fill="#474747">Контекстная реклама </tspan> <tspan x="0" y="93" fill="#474747">в Google и Яндекс</tspan> <tspan x="0" y="127" fill="#FB5B14">Подробнее</tspan>
        </text>
        <path fill="#9E75FC" fill-rule="nonzero" d="M55.25 41L48 63h5.33a3 3 0 0 0 2.85-2.06L62.75 41h-7.5zm8.026 1.598l-3.75 11.379 2.295 6.962A2.998 2.998 0 0 0 64.67 63H70l-6.724-20.402z"/>
        <path fill="#FB5B14" d="M141 157.5l1.5-1.5 6.5 6.5-6.5 6.5-1.5-1.5 5-5z"/>
    </g>
</svg>
