<svg xmlns="http://www.w3.org/2000/svg" width="42" height="60" viewBox="0 0 42 60">
    <path fill="#FB5B14" fill-rule="evenodd" d="M13.826 48.221c0-2.579-2.078-4.677-4.63-4.677H4.63c-2.072 0-3.758-1.703-3.758-3.796 0-2.092 1.686-3.795 3.758-3.795h32.74c2.553 0 4.63-2.098 4.63-4.677 0-2.578-2.077-4.676-4.63-4.676H4.63c-2.072 0-3.758-1.703-3.758-3.796s1.686-3.796 3.758-3.796h32.74c2.553 0 4.63-2.098 4.63-4.677 0-2.579-2.077-4.677-4.633-4.677l-1.906.01c-2.073 0-3.759-1.702-3.759-3.795V0h-.872v5.869c0 2.579 2.078 4.677 4.633 4.677l1.906-.01c2.073 0 3.759 1.702 3.759 3.795s-1.686 3.796-3.759 3.796H4.63c-2.553 0-4.63 2.098-4.63 4.677 0 2.578 2.077 4.676 4.63 4.676h32.74c2.072 0 3.758 1.703 3.758 3.796s-1.686 3.796-3.759 3.796H4.63C2.077 35.072 0 37.17 0 39.748c0 2.58 2.077 4.677 4.63 4.677h4.565c2.073 0 3.758 1.703 3.758 3.796V60h.873V48.221"/>
</svg>
