<svg xmlns="http://www.w3.org/2000/svg" width="28" height="40" viewBox="0 0 28 40">
    <path fill="#FB5B14" fill-rule="evenodd" d="M9.217 7.853c0 1.719-1.385 3.117-3.087 3.117H3.087C1.705 10.97.58 12.106.58 13.501c0 1.395 1.124 2.53 2.506 2.53h21.826c1.702 0 3.087 1.4 3.087 3.118 0 1.72-1.385 3.118-3.087 3.118H3.087c-1.382 0-2.506 1.135-2.506 2.53 0 1.396 1.124 2.53 2.506 2.53v.001h21.826c1.702 0 3.087 1.399 3.087 3.118 0 1.719-1.385 3.118-3.089 3.118l-1.27-.007c-1.382 0-2.506 1.135-2.506 2.53V40h-.581v-3.913c0-1.719 1.384-3.118 3.088-3.118l1.27.007c1.383 0 2.507-1.135 2.507-2.53 0-1.395-1.124-2.53-2.506-2.53H3.087c-1.702 0-3.087-1.4-3.087-3.118 0-1.72 1.385-3.118 3.087-3.118h21.826c1.382 0 2.506-1.135 2.506-2.53 0-1.396-1.124-2.531-2.506-2.531H3.087C1.385 16.619 0 15.22 0 13.5c0-1.72 1.385-3.118 3.087-3.118H6.13c1.382 0 2.506-1.135 2.506-2.53V0h.581v7.853"/>
</svg>
