<svg xmlns="http://www.w3.org/2000/svg" xmlns:xlink="http://www.w3.org/1999/xlink" width="324" height="140" viewBox="0 0 324 140">
    <defs>
        <path id="a" d="M.06.646h324.106V140H.06z"/>
    </defs>
    <g fill="none" fill-rule="evenodd">
        <mask id="b" fill="#fff">
            <use xlink:href="#a"/>
        </mask>
        <path fill="#FB5B14" d="M198.634 69.902v37.155c-.002 5.793-4.715 10.505-10.508 10.505-5.793 0-10.507-4.712-10.507-10.505V27.202c0-7.137-5.807-12.944-12.944-12.944-7.138 0-12.945 5.807-12.945 12.944v17.225c0 5.793-4.712 10.506-10.505 10.506-5.794 0-10.507-4.713-10.507-10.503l.086-30.84c0-7.137-5.808-12.944-12.945-12.944-7.137 0-12.944 5.807-12.944 12.944v65.356c0 5.793-4.713 10.506-10.507 10.506-5.793 0-10.506-4.713-10.506-10.506v-9.044c0-7.138-5.807-12.944-12.944-12.944H-5v2.438h75.958c5.793 0 10.506 4.713 10.506 10.506v9.044c0 7.138 5.807 12.944 12.944 12.944 7.138 0 12.945-5.806 12.945-12.944V13.59c0-5.793 4.713-10.506 10.506-10.506s10.507 4.713 10.507 10.503l-.086 30.84c0 7.137 5.807 12.944 12.945 12.944 7.137 0 12.944-5.807 12.944-12.944V27.202c0-5.792 4.713-10.505 10.506-10.505s10.507 4.713 10.507 10.505v79.855c0 7.136 5.806 12.944 12.944 12.944 7.138 0 12.944-5.808 12.944-12.944l.001-37.155c0-5.793 4.713-10.506 10.506-10.506h116.589v-2.438H211.577c-7.137 0-12.943 5.806-12.943 12.944z" mask="url(#b)"/>
    </g>
</svg>
